HIERARCHY
ROOT Hip
{
	OFFSET 0.782599 -1.294198 0.116606
	CHANNELS 6 Xposition Yposition Zposition Xrotation Yrotation Zrotation
	JOINT LowerSpine
	{
		OFFSET -0.020335 0.153349 0.259874
		CHANNELS 6 Xposition Yposition Zposition Xrotation Yrotation Zrotation
		JOINT MiddleSpine
		{
			OFFSET 0.001466 -0.011056 0.237154
			CHANNELS 3 Xrotation Yrotation Zrotation
			JOINT Chest
			{
				OFFSET -0.007728 0.058276 0.293449
				CHANNELS 3 Xrotation Yrotation Zrotation
				JOINT Neck
				{
					OFFSET -0.001627 0.012268 0.661279
					CHANNELS 6 Xposition Yposition Zposition Xrotation Yrotation Zrotation
					JOINT Head
					{
						OFFSET 0.013350 -0.100692 0.373434
						CHANNELS 3 Xrotation Yrotation Zrotation
						End Site
						{
							OFFSET 0.000211 -0.001587 0.053629
						}
					}
				}
				JOINT LClavicle
				{
					OFFSET 0.085431 -0.187170 0.638168
					CHANNELS 6 Xposition Yposition Zposition Xrotation Yrotation Zrotation
					JOINT LShoulder
					{
						OFFSET 0.328511 0.192973 0.091535
						CHANNELS 3 Xrotation Yrotation Zrotation
						JOINT LForearm
						{
							OFFSET 0.820367 0.116027 -0.002937
							CHANNELS 3 Xrotation Yrotation Zrotation
							JOINT LHand
							{
								OFFSET 0.684601 0.094959 0.002005
								CHANNELS 3 Xrotation Yrotation Zrotation
								JOINT LFinger1
								{
									OFFSET 0.275323 -0.038541 0.023427
									CHANNELS 6 Xposition Yposition Zposition Xrotation Yrotation Zrotation
									JOINT LFinger11
									{
										OFFSET 0.101646 -0.004329 -0.024433
										CHANNELS 3 Xrotation Yrotation Zrotation
										JOINT LFinger12
										{
											OFFSET 0.069393 -0.002960 -0.016682
											CHANNELS 3 Xrotation Yrotation Zrotation
											End Site
											{
												OFFSET 0.051444 -0.001491 -0.015164
											}
										}
									}
								}
								JOINT LFinger2
								{
									OFFSET 0.270358 0.029318 0.027053
									CHANNELS 6 Xposition Yposition Zposition Xrotation Yrotation Zrotation
									JOINT LFinger21
									{
										OFFSET 0.122715 0.017010 0.000344
										CHANNELS 3 Xrotation Yrotation Zrotation
										JOINT LFinger22
										{
											OFFSET 0.068019 0.009440 0.000210
											CHANNELS 3 Xrotation Yrotation Zrotation
											End Site
											{
												OFFSET 0.053064 0.006963 -0.003780
											}
										}
									}
								}
								JOINT LFinger3
								{
									OFFSET 0.247401 0.094297 0.018054
									CHANNELS 6 Xposition Yposition Zposition Xrotation Yrotation Zrotation
									JOINT LFinger31
									{
										OFFSET 0.110514 0.021755 -0.005692
										CHANNELS 3 Xrotation Yrotation Zrotation
										JOINT LFinger32
										{
											OFFSET 0.062973 0.012409 -0.003223
											CHANNELS 3 Xrotation Yrotation Zrotation
											End Site
											{
												OFFSET 0.052401 0.009485 -0.006540
											}
										}
									}
								}
								JOINT LFinger4
								{
									OFFSET 0.223176 0.135785 -0.018169
									CHANNELS 6 Xposition Yposition Zposition Xrotation Yrotation Zrotation
									JOINT LFinger41
									{
										OFFSET 0.066037 0.028012 -0.014420
										CHANNELS 3 Xrotation Yrotation Zrotation
										JOINT LFinger42
										{
											OFFSET 0.048424 0.020549 -0.010559
											CHANNELS 3 Xrotation Yrotation Zrotation
											End Site
											{
												OFFSET 0.048552 0.018130 -0.013879
											}
										}
									}
								}
								JOINT LFinger0
								{
									OFFSET 0.060453 -0.034360 -0.041942
									CHANNELS 6 Xposition Yposition Zposition Xrotation Yrotation Zrotation
									JOINT LFinger01
									{
										OFFSET 0.112498 -0.063547 -0.033880
										CHANNELS 3 Xrotation Yrotation Zrotation
										JOINT LFinger02
										{
											OFFSET 0.073778 -0.039589 -0.024310
											CHANNELS 3 Xrotation Yrotation Zrotation
											End Site
											{
												OFFSET 0.046048 -0.023308 -0.014659
											}
										}
									}
								}
							}
						}
					}
				}
				JOINT RClavicle
				{
					OFFSET -0.033697 -0.202967 0.638168
					CHANNELS 6 Xposition Yposition Zposition Xrotation Yrotation Zrotation
					JOINT RShoulder
					{
						OFFSET -0.367516 0.100702 0.091552
						CHANNELS 3 Xrotation Yrotation Zrotation
						JOINT RForearm
						{
							OFFSET -0.822255 -0.101793 -0.002938
							CHANNELS 3 Xrotation Yrotation Zrotation
							JOINT RHand
							{
								OFFSET -0.685690 -0.086748 0.002005
								CHANNELS 3 Xrotation Yrotation Zrotation
								JOINT RFinger1
								{
									OFFSET -0.255766 -0.108965 0.023430
									CHANNELS 6 Xposition Yposition Zposition Xrotation Yrotation Zrotation
									JOINT RFinger11
									{
										OFFSET -0.097005 -0.030672 -0.024433
										CHANNELS 3 Xrotation Yrotation Zrotation
										JOINT RFinger12
										{
											OFFSET -0.066223 -0.020944 -0.016688
											CHANNELS 3 Xrotation Yrotation Zrotation
											End Site
											{
												OFFSET -0.049277 -0.014848 -0.015164
											}
										}
									}
								}
								JOINT RFinger2
								{
									OFFSET -0.268655 -0.042161 0.027054
									CHANNELS 6 Xposition Yposition Zposition Xrotation Yrotation Zrotation
									JOINT RFinger21
									{
										OFFSET -0.122907 -0.015561 0.000347
										CHANNELS 3 Xrotation Yrotation Zrotation
										JOINT RFinger22
										{
											OFFSET -0.068129 -0.008611 0.000210
											CHANNELS 3 Xrotation Yrotation Zrotation
											End Site
											{
												OFFSET -0.053045 -0.007108 -0.003780
											}
										}
									}
								}
								JOINT RFinger3
								{
									OFFSET -0.263427 0.026558 0.018057
									CHANNELS 6 Xposition Yposition Zposition Xrotation Yrotation Zrotation
									JOINT RFinger31
									{
										OFFSET -0.112364 -0.007799 -0.005692
										CHANNELS 3 Xrotation Yrotation Zrotation
										JOINT RFinger32
										{
											OFFSET -0.064034 -0.004432 -0.003223
											CHANNELS 3 Xrotation Yrotation Zrotation
											End Site
											{
												OFFSET -0.053062 -0.004500 -0.006540
											}
										}
									}
								}
								JOINT RFinger4
								{
									OFFSET -0.250852 0.072926 -0.018169
									CHANNELS 6 Xposition Yposition Zposition Xrotation Yrotation Zrotation
									JOINT RFinger41
									{
										OFFSET -0.071055 0.009832 -0.014420
										CHANNELS 3 Xrotation Yrotation Zrotation
										JOINT RFinger42
										{
											OFFSET -0.052106 0.007219 -0.010556
											CHANNELS 3 Xrotation Yrotation Zrotation
											End Site
											{
												OFFSET -0.051599 0.004850 -0.013879
											}
										}
									}
								}
								JOINT RFinger0
								{
									OFFSET -0.049409 -0.048925 -0.041938
									CHANNELS 6 Xposition Yposition Zposition Xrotation Yrotation Zrotation
									JOINT RFinger01
									{
										OFFSET -0.092048 -0.090674 -0.033886
										CHANNELS 3 Xrotation Yrotation Zrotation
										JOINT RFinger02
										{
											OFFSET -0.060910 -0.057450 -0.024307
											CHANNELS 3 Xrotation Yrotation Zrotation
											End Site
											{
												OFFSET -0.038382 -0.034504 -0.014660
											}
										}
									}
								}
							}
						}
					}
				}
			}
		}
	}
	JOINT RThigh
	{
		OFFSET -0.307908 -0.015404 0.117468
		CHANNELS 6 Xposition Yposition Zposition Xrotation Yrotation Zrotation
		JOINT RShin
		{
			OFFSET -0.022053 -0.002924 -1.209169
			CHANNELS 3 Xrotation Yrotation Zrotation
			JOINT RFoot
			{
				OFFSET -0.000000 0.000000 -1.187331
				CHANNELS 3 Xrotation Yrotation Zrotation
				JOINT RToe
				{
					OFFSET 0.035872 -0.270520 -0.130497
					CHANNELS 3 Xrotation Yrotation Zrotation
					End Site
					{
						OFFSET 0.007053 -0.053187 0.000000
					}
				}
			}
		}
	}
	JOINT LThigh
	{
		OFFSET 0.301278 0.065377 0.117477
		CHANNELS 6 Xposition Yposition Zposition Xrotation Yrotation Zrotation
		JOINT LShin
		{
			OFFSET 0.022053 0.002924 -1.209177
			CHANNELS 3 Xrotation Yrotation Zrotation
			JOINT LFoot
			{
				OFFSET -0.000000 0.000000 -1.187332
				CHANNELS 3 Xrotation Yrotation Zrotation
				JOINT LToe
				{
					OFFSET 0.035873 -0.270523 -0.130500
					CHANNELS 3 Xrotation Yrotation Zrotation
					End Site
					{
						OFFSET 0.007053 -0.053187 0.000000
					}
				}
			}
		}
	}
}
MOTION
Frames: 5
Frame Time: 0.041667
-0.838630 3.031266 2.111659 -10.412421 -1.027742 162.712673 -0.020335 0.153349 0.259873 -0.000006 -0.000004 0.000010 -3.146265 -0.696390 -1.610602 -10.555607 -1.964931 -5.499033 -0.001627 0.012269 0.661278 -1.420704 4.079571 1.199509 3.238466 0.036155 -0.010678 0.085431 -0.187170 0.638167 -0.896269 6.727595 0.052698 32.503193 18.327172 -30.582739 0.171894 -0.054264 -64.669973 -0.000015 -0.000042 -0.000016 0.275323 -0.038541 0.023428 -0.000000 -0.000009 -0.000007 0.000006 -0.000001 0.000011 0.000008 0.000008 -0.000001 0.270357 0.029318 0.027054 -0.000001 -0.000011 -0.000000 0.000001 0.000005 0.000004 0.000011 -0.000000 -0.000004 0.247401 0.094296 0.018055 -0.000004 -0.000010 -0.000001 -0.000007 0.000009 0.000009 -0.000007 -0.000002 -0.000003 0.223176 0.135784 -0.018169 0.000002 -0.000005 0.000011 0.000003 -0.000002 -0.000002 -0.000012 0.000002 -0.000004 0.060453 -0.034360 -0.041941 -0.000003 -0.000014 0.000016 0.000012 0.000018 0.000012 -0.000008 -0.000013 -0.000010 -0.033696 -0.202967 0.638167 2.249453 -16.488572 0.325972 44.881323 -56.864764 37.144696 0.003477 0.000065 1.499842 0.000002 -0.000002 0.000000 -0.255766 -0.108966 0.023431 -0.000003 0.000003 0.000005 -0.000000 0.000000 -0.000006 0.000006 0.000001 -0.000006 -0.268655 -0.042160 0.027054 -0.000001 0.000004 0.000004 0.000001 0.000002 -0.000005 -0.000004 0.000013 0.000008 -0.263428 0.026558 0.018057 -0.000003 0.000011 0.000004 -0.000003 0.000010 -0.000003 0.000005 -0.000001 0.000002 -0.250852 0.072926 -0.018169 -0.000000 0.000002 0.000003 0.000003 -0.000007 -0.000005 -0.000004 -0.000015 -0.000008 -0.049409 -0.048925 -0.041938 0.000001 0.000002 0.000003 0.000005 -0.000007 0.000004 0.000003 -0.000004 0.000015 -0.321825 0.013102 0.206937 -4.562372 13.422245 12.418246 32.998536 4.130662 -1.223970 1.349259 -0.721818 1.925913 -35.009446 -4.350545 -1.372722 0.279594 0.116747 0.419544 -6.675967 0.979640 0.238238 3.545807 0.469874 -0.014542 -0.159391 0.464630 -0.999710 -0.000001 0.000002 -0.000004 
-0.838630 3.031266 2.111659 -10.412421 -1.027742 162.712673 -0.020335 0.153349 0.259873 -0.000006 -0.000004 0.000010 -3.146265 -0.696390 -1.610602 -10.555607 -1.964931 -5.499033 -0.001627 0.012269 0.661278 -1.420704 4.079571 1.199509 3.238466 0.036155 -0.010678 0.085431 -0.187170 0.638167 -0.896269 6.727595 0.052698 32.503193 18.327172 -30.582739 0.171894 -0.054264 -64.669973 -0.000015 -0.000042 -0.000016 0.275323 -0.038541 0.023428 -0.000000 -0.000009 -0.000007 0.000006 -0.000001 0.000011 0.000008 0.000008 -0.000001 0.270357 0.029318 0.027054 -0.000001 -0.000011 -0.000000 0.000001 0.000005 0.000004 0.000011 -0.000000 -0.000004 0.247401 0.094296 0.018055 -0.000004 -0.000010 -0.000001 -0.000007 0.000009 0.000009 -0.000007 -0.000002 -0.000003 0.223176 0.135784 -0.018169 0.000002 -0.000005 0.000011 0.000003 -0.000002 -0.000002 -0.000012 0.000002 -0.000004 0.060453 -0.034360 -0.041941 -0.000003 -0.000014 0.000016 0.000012 0.000018 0.000012 -0.000008 -0.000013 -0.000010 -0.033696 -0.202967 0.638167 2.249453 -16.488572 0.325972 44.881323 -56.864764 37.144696 0.003477 0.000065 1.499842 0.000002 -0.000002 0.000000 -0.255766 -0.108966 0.023431 -0.000003 0.000003 0.000005 -0.000000 0.000000 -0.000006 0.000006 0.000001 -0.000006 -0.268655 -0.042160 0.027054 -0.000001 0.000004 0.000004 0.000001 0.000002 -0.000005 -0.000004 0.000013 0.000008 -0.263428 0.026558 0.018057 -0.000003 0.000011 0.000004 -0.000003 0.000010 -0.000003 0.000005 -0.000001 0.000002 -0.250852 0.072926 -0.018169 -0.000000 0.000002 0.000003 0.000003 -0.000007 -0.000005 -0.000004 -0.000015 -0.000008 -0.049409 -0.048925 -0.041938 0.000001 0.000002 0.000003 0.000005 -0.000007 0.000004 0.000003 -0.000004 0.000015 -0.321825 0.013102 0.206937 -4.562372 13.422245 12.418246 32.998536 4.130662 -1.223970 1.349259 -0.721818 1.925913 -35.009446 -4.350545 -1.372722 0.279594 0.116747 0.419544 -6.675967 0.979640 0.238238 3.545807 0.469874 -0.014542 -0.159391 0.464630 -0.999710 -0.000001 0.000002 -0.000004 
-0.841397 3.036799 2.108601 -10.657144 -1.054639 162.245884 -0.020335 0.153349 0.259873 -0.000007 -0.000004 0.000011 -3.062830 -0.464835 -1.563485 -10.235982 -1.204570 -5.271127 -0.001626 0.012268 0.661279 -1.266480 2.301830 0.693017 2.156219 -0.633808 -0.017844 0.085431 -0.187170 0.638168 -0.869679 6.529699 0.049622 32.775107 17.257533 -30.827973 0.171277 -0.055284 -64.841103 -0.000016 -0.000037 -0.000016 0.275323 -0.038541 0.023428 -0.000005 -0.000006 -0.000006 0.000006 0.000001 0.000010 0.000008 0.000007 0.000005 0.270357 0.029318 0.027054 -0.000005 -0.000009 -0.000001 0.000001 0.000005 0.000006 0.000010 -0.000010 -0.000002 0.247401 0.094296 0.018054 -0.000007 -0.000007 -0.000003 -0.000002 0.000009 0.000006 -0.000005 0.000001 -0.000005 0.223176 0.135785 -0.018169 -0.000005 0.000003 0.000005 0.000007 -0.000003 -0.000007 -0.000012 0.000004 0.000003 0.060453 -0.034359 -0.041941 -0.000006 -0.000012 0.000012 0.000007 0.000019 0.000009 -0.000014 -0.000010 -0.000014 -0.033696 -0.202966 0.638167 2.251384 -16.501923 0.326515 49.201196 -54.700827 40.564791 0.003676 0.001621 1.638390 0.000001 0.000000 -0.000001 -0.255766 -0.108966 0.023431 -0.000002 0.000002 0.000007 -0.000003 0.000001 -0.000009 0.000000 0.000002 -0.000004 -0.268655 -0.042161 0.027054 -0.000002 0.000004 0.000004 0.000000 0.000003 -0.000005 -0.000004 0.000012 0.000008 -0.263428 0.026558 0.018058 -0.000003 0.000010 0.000003 -0.000004 0.000010 -0.000003 0.000006 -0.000002 0.000002 -0.250852 0.072926 -0.018169 -0.000000 0.000003 0.000002 0.000004 -0.000008 -0.000004 -0.000007 -0.000015 -0.000007 -0.049409 -0.048925 -0.041938 -0.000002 -0.000002 0.000003 0.000007 -0.000009 0.000005 0.000005 0.000001 0.000011 -0.321825 0.013102 0.206937 -4.851291 12.618004 13.455027 33.497368 4.185693 -1.260142 1.508843 -0.723791 1.973591 -35.626673 -4.416940 -1.419899 0.279575 0.116617 0.419254 -7.121143 0.983106 0.249554 4.083474 0.541007 -0.019286 -0.293653 0.508100 -1.120819 0.000002 0.000003 -0.000001 
-0.843890 3.039246 2.107165 -10.768424 -1.056734 162.012401 -0.020335 0.153349 0.259874 -0.000007 -0.000003 0.000010 -3.025354 -0.396734 -1.532218 -10.115590 -1.001777 -5.169117 -0.001627 0.012269 0.661279 -1.282142 1.791101 0.547356 1.859766 -0.852096 -0.020987 0.085431 -0.187170 0.638168 -0.860285 6.459778 0.048564 32.915918 16.943905 -31.020438 0.171228 -0.055319 -64.823768 -0.000017 -0.000041 -0.000016 0.275323 -0.038541 0.023428 -0.000003 -0.000006 -0.000006 0.000009 -0.000002 0.000006 0.000009 0.000004 0.000003 0.270358 0.029318 0.027054 -0.000004 -0.000007 0.000001 0.000002 0.000001 0.000008 0.000010 -0.000004 -0.000004 0.247401 0.094296 0.018054 -0.000005 -0.000007 -0.000002 -0.000001 0.000009 0.000004 -0.000003 -0.000007 -0.000002 0.223177 0.135784 -0.018169 -0.000002 0.000003 0.000005 0.000004 0.000001 -0.000003 -0.000008 -0.000007 0.000000 0.060453 -0.034360 -0.041941 -0.000009 -0.000008 0.000012 0.000012 0.000018 0.000015 -0.000015 -0.000012 -0.000016 -0.033696 -0.202966 0.638167 2.251890 -16.494285 0.326211 48.753149 -55.019547 40.058691 0.003758 0.004013 1.734173 0.000001 -0.000001 0.000000 -0.255766 -0.108966 0.023431 -0.000000 0.000002 0.000005 -0.000001 0.000000 -0.000005 0.000003 0.000000 -0.000004 -0.268655 -0.042161 0.027054 -0.000001 0.000003 0.000005 0.000001 0.000003 -0.000006 -0.000004 0.000012 0.000007 -0.263428 0.026558 0.018057 -0.000003 0.000010 0.000004 -0.000003 0.000008 -0.000002 0.000006 -0.000001 0.000002 -0.250852 0.072926 -0.018169 0.000000 0.000003 0.000005 0.000005 -0.000006 -0.000005 -0.000005 -0.000013 -0.000007 -0.049409 -0.048925 -0.041938 -0.000004 0.000000 0.000009 0.000011 -0.000006 0.000009 0.000003 -0.000006 0.000020 -0.321824 0.013102 0.206938 -4.852591 12.306946 13.858817 33.559892 4.192564 -1.264708 1.592937 -0.295622 1.087566 -35.845676 -4.440370 -1.436809 0.279547 0.116404 0.418782 -7.187756 1.033065 0.243790 4.031342 0.534112 -0.018794 -0.219848 0.568719 -1.232477 0.000002 0.000002 -0.000000 
-0.845633 3.040545 2.106152 -10.848125 -1.060032 161.857315 -0.020335 0.153349 0.259873 -0.000009 -0.000004 0.000008 -3.010706 -0.384114 -1.512291 -10.070629 -0.969640 -5.107776 -0.001627 0.012268 0.661279 -1.326502 1.701924 0.524719 1.809812 -0.892440 -0.021478 0.085431 -0.187170 0.638168 -0.859372 6.453009 0.048459 32.985552 16.863923 -31.185056 0.171233 -0.055179 -64.755664 -0.000012 -0.000040 -0.000014 0.275323 -0.038541 0.023428 -0.000004 -0.000003 -0.000006 0.000003 0.000003 0.000010 0.000007 0.000007 -0.000005 0.270357 0.029318 0.027054 -0.000002 -0.000009 -0.000002 0.000004 0.000003 0.000004 0.000011 -0.000005 -0.000002 0.247401 0.094296 0.018055 -0.000003 -0.000011 -0.000004 -0.000002 0.000017 0.000007 -0.000002 -0.000005 -0.000004 0.223176 0.135784 -0.018169 0.000002 -0.000001 0.000006 0.000006 -0.000004 -0.000007 -0.000006 -0.000003 -0.000003 0.060453 -0.034360 -0.041941 -0.000005 -0.000008 0.000013 0.000013 0.000024 0.000009 -0.000018 -0.000009 -0.000014 -0.033697 -0.202967 0.638168 2.248728 -16.483506 0.325761 49.384952 -54.552513 40.779074 0.002629 0.001731 1.090650 0.000001 -0.000001 -0.000001 -0.255766 -0.108966 0.023431 -0.000003 0.000002 0.000005 -0.000003 0.000003 -0.000007 0.000005 0.000003 -0.000004 -0.268655 -0.042161 0.027054 -0.000002 0.000003 0.000004 0.000000 0.000003 -0.000005 -0.000004 0.000013 0.000008 -0.263428 0.026558 0.018058 -0.000003 0.000010 0.000003 -0.000004 0.000010 -0.000003 0.000005 -0.000001 0.000002 -0.250852 0.072926 -0.018169 0.000001 0.000002 0.000005 0.000002 -0.000006 -0.000002 -0.000006 -0.000015 -0.000006 -0.049409 -0.048925 -0.041938 -0.000001 0.000001 0.000007 0.000008 -0.000010 0.000008 0.000007 -0.000005 0.000013 -0.321825 0.013102 0.206937 -4.769440 12.199843 13.825274 33.362496 4.170845 -1.250316 1.474386 0.098440 0.207942 -35.572315 -4.411112 -1.415714 0.279507 0.116113 0.418135 -7.136045 1.053155 0.241463 3.821765 0.506390 -0.016894 -0.170035 0.609491 -1.309855 0.000002 0.000002 -0.000003 
